# xmcd CD database file
#
# Track frame offsets:
#	150
#	41970
#	73391
#	128247
#	167630
#	195754
#	248545
#	275406
#	319305
#
# Disc length: 4770 seconds
#
# Revision: 0
# Processed by: cddbd v1.5.2PL0 Copyright (c) Steve Scherf et al.
# Submitted via: CDex 1.51
#
DISCID=8112a009
DTITLE=Fred Stride Jazz Orchestra - Forward Motion
DYEAR=2006
DGENRE=Jazz
TTITLE0=Opposition Party
TTITLE1=Gently Swaying
TTITLE2=Floatation Device
TTITLE3=A Few Shades Darker
TTITLE4=Oddly Enough
TTITLE5=Machina - I. Input/Process
TTITLE6=Machina - II. Colossus
TTITLE7=Machina - III. Sound
TTITLE8=Machina - IV. Velocity
EXTD=YEAR: 2006
EXTT0=
EXTT1=
EXTT2=
EXTT3=
EXTT4=
EXTT5=
EXTT6=
EXTT7=
EXTT8=
PLAYORDER=
